<svg xmlns="http://www.w3.org/2000/svg" width="24" height="24" viewBox="0 0 402.083 402.084"><path d="M318.034 45.67c.243-11.668-4.746-30.607-37.938-35.905l.012-.452a9.14 9.14 0 0 0-2.604-6.574A9.132 9.132 0 0 0 270.982 0h-139.88a9.127 9.127 0 0 0-9.124 9.313c.003.15.01.3.013.452-33.186 5.297-38.18 24.233-37.936 35.9.472 22.788 20.728 44.71 29.415 53.078 10.08 9.71 20.667 17.186 30.61 21.824.65 1.35 1.31 2.684 1.984 3.987 10.087 19.39 22.748 32.638 36.726 38.79v73.788h-23.46c-7.03 0-12.728 5.7-12.728 12.73v15.972c0 7.03 5.696 12.73 12.728 12.73h83.43c7.027 0 12.728-5.7 12.728-12.73V249.86c0-7.028-5.698-12.728-12.73-12.728H219.3v-73.788c13.98-6.152 26.642-19.4 36.727-38.79a146.332 146.332 0 0 0 1.984-3.984c9.94-4.637 20.53-12.11 30.61-21.82 8.687-8.37 28.94-30.29 29.416-53.08zM126.13 85.598c-14.474-13.94-23.604-29.386-23.83-40.31-.184-8.876 6.695-14.63 20.484-17.18 1.553 23.628 5.107 45.133 10.54 63.887a120.94 120.94 0 0 1-7.195-6.397zm149.825.005A121.45 121.45 0 0 1 268.76 92c5.435-18.756 8.988-40.262 10.542-63.893 13.79 2.552 20.668 8.306 20.482 17.184-.227 10.93-9.357 26.375-23.83 40.314zm-160.23 254.87l-27.783-4.037-12.425-25.176a4.99 4.99 0 0 0-8.95 0l-12.424 25.176-27.783 4.037a4.988 4.988 0 0 0-2.765 8.51L43.7 368.58l-4.748 27.67a4.99 4.99 0 0 0 7.24 5.26l24.85-13.062 24.85 13.062a4.986 4.986 0 0 0 5.254-.38 4.985 4.985 0 0 0 1.986-4.88l-4.746-27.67 20.104-19.598a4.987 4.987 0 0 0-2.766-8.51zm130 0l-27.78-4.037-12.428-25.176a4.99 4.99 0 0 0-8.95 0l-12.424 25.176-27.783 4.037a4.988 4.988 0 0 0-2.765 8.51L173.7 368.58l-4.747 27.672a4.99 4.99 0 0 0 7.24 5.26l24.85-13.064 24.85 13.062a4.99 4.99 0 0 0 7.24-5.26l-4.747-27.67 20.104-19.598a4.996 4.996 0 0 0 1.263-5.114 4.985 4.985 0 0 0-4.03-3.395zm134.027 3.395a4.983 4.983 0 0 0-4.028-3.396l-27.78-4.037-12.427-25.177a4.988 4.988 0 0 0-8.95 0l-12.427 25.177-27.78 4.037a4.988 4.988 0 0 0-2.766 8.51l20.104 19.598-4.746 27.67a4.99 4.99 0 0 0 7.24 5.26l24.85-13.062 24.85 13.062a5 5 0 0 0 5.258-.38 4.99 4.99 0 0 0 1.982-4.88l-4.746-27.67 20.104-19.598a4.985 4.985 0 0 0 1.262-5.114zm-28.346 17.55l-3.767 3.67.89 5.184 3.026 17.663-15.862-8.34-4.653-2.445v-52.36l7.93 16.07 2.33 4.716 5.203.756 17.736 2.577-12.835 12.51z" fill="#FFF"/></svg>