<svg xmlns="http://www.w3.org/2000/svg" width="512" height="512">
  <path fill="none" d="M-1-1h514v514H-1z"/>
  <g>
    <path fill="#e4a" d="M20.473 102.331C20.473 63.488 44.64 32 74.448 32H437.552c14.315 0 28.044 7.41 38.166 20.6 10.122 13.19 15.809 31.078 15.809 49.731v281.326c0 38.843-24.166 70.33-53.975 70.33H216.746L62.902 632.825l36.08-178.836H74.448c-29.81 0-53.975-31.488-53.975-70.331V102.33z"/>
    <ellipse cx="262" cy="241.937" fill="#fff" rx="145.5" ry="158.5"/>
    <ellipse cx="262" cy="241.438" fill="#e4a" fill-opacity="null" rx="102.5" ry="121"/>
    <path fill="#fff" d="M295.753 303.68l108.171 87.066-19.32 24.003-108.17-87.065z"/>
  </g>
</svg>
