<svg xmlns="http://www.w3.org/2000/svg" width="16.716894589026026" height="16.716894589026026" style=""><rect id="backgroundrect" width="100%" height="100%" x="0" y="0" fill="none" stroke="none" class="" style=""/>

<g class="currentLayer" style=""><title>Layer 1</title><path fill="none" d="M2.9393959045410156,1.9292945861816406 h30.647318308662946 v30.647318308662946 H2.9393959045410156 z" id="svg_1" class=""/><g id="svg_2" class="">
    <path fill="#e4a" d="M0.9752808310292158,3.1373841375880898 C0.9752808310292158,1.9207854706122829 1.7322136113192121,0.9345522026944025 2.6658277262231795,0.9345522026944025 H14.038580664296534 c0.44835903297270224,0 0.8783640042393611,0.23208804990064436 1.1953944011481765,0.6452110429086741 c0.31703039690881546,0.4131229930080295 0.49515249404578754,0.9733916889085323 0.49515249404578754,1.557620891985012 v8.81139038142357 c0,1.2165986669758069 -0.756901459365583,2.202800613969273 -1.6905468951939644,2.202800613969273 H7.122732628350288 L2.304196332950192,19.75294661316061 l1.1300589528225697,-5.601308838330854 H2.6658277262231795 c-0.9336767567527943,0 -1.6905468951939644,-0.9862332679178795 -1.6905468951939644,-2.202831934893686 V3.137352816663676 z" id="svg_3"/>
    <ellipse cx="8.54012974173811" cy="7.509973000317991" fill="#fff" rx="4.55719450209767" ry="4.964366519467222" id="svg_4"/>
    <ellipse cx="8.54012974173811" cy="7.494344080790476" fill="#e4a" fill-opacity="null" rx="3.210394752336847" ry="3.7898318539781313" id="svg_5"/>
    <path fill="#fff" d="M9.597304903451528,9.443820947229767 l3.3880157146832106,2.7269876049459496 l-0.6051202596599797,0.7517961486862573 l-3.3879843937587975,-2.7269562840215373 z" id="svg_6"/>
  </g></g></svg>
